<svg width="14" height="14" viewBox="0 0 14 14" fill="none" xmlns="http://www.w3.org/2000/svg">
<g id="star 3" clip-path="url(#clip0_0_381)">
<path id="Vector" d="M10.7742 13.1258C10.6821 13.1261 10.5923 13.0974 10.5175 13.0437L7.0008 10.4942L3.48412 13.0437C3.40899 13.0982 3.31848 13.1274 3.22566 13.1271C3.13285 13.1268 3.04255 13.0969 2.96782 13.0419C2.89308 12.9868 2.83779 12.9095 2.80993 12.8209C2.78207 12.7324 2.78309 12.6373 2.81283 12.5494L4.18439 8.48691L0.62971 6.04922C0.552713 5.99648 0.4946 5.92049 0.463862 5.83237C0.433124 5.74425 0.431372 5.64861 0.458862 5.55942C0.486351 5.47023 0.541642 5.39217 0.616656 5.33664C0.691669 5.28111 0.782474 5.25103 0.875803 5.25078H5.26119L6.58463 1.17793C6.61314 1.09 6.66877 1.01336 6.74353 0.959002C6.8183 0.904645 6.90836 0.875366 7.0008 0.875366C7.09324 0.875366 7.1833 0.904645 7.25807 0.959002C7.33283 1.01336 7.38846 1.09 7.41697 1.17793L8.74041 5.25215H13.1258C13.2192 5.2521 13.3102 5.28198 13.3855 5.3374C13.4607 5.39282 13.5162 5.47087 13.5439 5.56013C13.5716 5.64939 13.5699 5.74516 13.5392 5.83341C13.5085 5.92167 13.4503 5.99778 13.3733 6.05059L9.8172 8.48691L11.1879 12.5483C11.2102 12.614 11.2164 12.6841 11.2062 12.7528C11.1959 12.8214 11.1695 12.8866 11.1291 12.9431C11.0887 12.9995 11.0354 13.0455 10.9737 13.0772C10.912 13.109 10.8436 13.1257 10.7742 13.1258Z" fill="#FFC351"/>
</g>
<defs>
<clipPath id="clip0_0_381">
<rect width="14" height="14" fill="white"/>
</clipPath>
</defs>
</svg>
