<svg width="12" height="12" viewBox="0 0 12 12" fill="none" xmlns="http://www.w3.org/2000/svg">
<path d="M11.2562 5.99999L11.9194 4.85381C11.9991 4.71591 12.0208 4.552 11.9796 4.39812C11.9385 4.24424 11.838 4.11299 11.7001 4.03323L10.5528 3.37003V2.04844C10.5528 1.88912 10.4895 1.73633 10.3768 1.62367C10.2642 1.51101 10.1114 1.44772 9.95207 1.44772H8.63113L7.96855 0.300945C7.88853 0.16333 7.75754 0.0627621 7.60393 0.0210087C7.52774 0.000353459 7.4482 -0.0049726 7.36994 0.00533926C7.29167 0.0156511 7.21623 0.0413959 7.14799 0.081081L6.00065 0.744278L4.85331 0.0804802C4.71534 0.000823095 4.55138 -0.0207636 4.3975 0.0204686C4.24361 0.0617009 4.11241 0.162375 4.03275 0.300344L3.36957 1.44772H2.04863C1.88931 1.44772 1.73652 1.51101 1.62387 1.62367C1.51122 1.73633 1.44793 1.88912 1.44793 2.04844V3.36943L0.300586 4.03263C0.232125 4.07201 0.17212 4.12453 0.124018 4.18717C0.0759162 4.24981 0.0406656 4.32134 0.0202915 4.39765C-8.26506e-05 4.47396 -0.00517867 4.55354 0.00529619 4.63182C0.015771 4.71011 0.0416102 4.78555 0.0813294 4.85381L0.744505 5.99999L0.0813294 7.14617C0.00202993 7.2842 -0.0194853 7.44798 0.0214745 7.60181C0.0624342 7.75564 0.162547 7.88704 0.299985 7.96735L1.44733 8.63055V9.95154C1.44733 10.1109 1.51061 10.2637 1.62327 10.3763C1.73592 10.489 1.88871 10.5523 2.04803 10.5523H3.36957L4.03275 11.6996C4.08593 11.7906 4.16186 11.8661 4.25307 11.9187C4.34429 11.9714 4.44764 11.9994 4.55296 12C4.65748 12 4.7614 11.9724 4.85391 11.9189L6.00005 11.2557L7.14739 11.9189C7.28533 11.9984 7.44918 12.02 7.603 11.9789C7.75683 11.9378 7.88808 11.8374 7.96795 11.6996L8.63053 10.5523H9.95147C10.1108 10.5523 10.2636 10.489 10.3762 10.3763C10.4889 10.2637 10.5522 10.1109 10.5522 9.95154V8.63055L11.6995 7.96735C11.7679 7.92786 11.8277 7.87528 11.8758 7.81263C11.9238 7.74997 11.959 7.67847 11.9793 7.6022C11.9997 7.52594 12.0048 7.44641 11.9944 7.36816C11.984 7.28991 11.9583 7.21448 11.9188 7.14617L11.2562 5.99999ZM4.49829 2.99038C4.73735 2.99046 4.96658 3.0855 5.13556 3.2546C5.30454 3.4237 5.39943 3.653 5.39935 3.89206C5.39927 4.13112 5.30423 4.36036 5.13514 4.52935C4.96604 4.69833 4.73675 4.79322 4.49769 4.79314C4.25864 4.79306 4.02941 4.69802 3.86043 4.52892C3.69145 4.35982 3.59656 4.13052 3.59664 3.89146C3.59672 3.6524 3.69176 3.42316 3.86085 3.25417C4.02995 3.08519 4.25924 2.9903 4.49829 2.99038ZM4.6785 8.7573L3.71738 8.03704L7.3216 3.23127L8.28272 3.95153L4.6785 8.7573ZM7.50181 8.99759C7.38344 8.99755 7.26624 8.9742 7.1569 8.92886C7.04755 8.88353 6.94821 8.8171 6.86454 8.73337C6.78087 8.64964 6.71451 8.55025 6.66925 8.44088C6.62399 8.3315 6.60071 8.21428 6.60075 8.09591C6.60079 7.97754 6.62415 7.86033 6.66948 7.75099C6.71481 7.64164 6.78124 7.5423 6.86497 7.45862C6.94869 7.37495 7.04808 7.30859 7.15745 7.26333C7.26682 7.21806 7.38404 7.19479 7.50241 7.19483C7.74146 7.19491 7.97069 7.28995 8.13967 7.45905C8.30865 7.62815 8.40354 7.85745 8.40346 8.09651C8.40338 8.33557 8.30834 8.56481 8.13925 8.7338C7.97016 8.90278 7.74086 8.99767 7.50181 8.99759Z" fill="white"/>
</svg>
