<svg width="19" height="12" viewBox="0 0 19 12" fill="none" xmlns="http://www.w3.org/2000/svg">
<path fill-rule="evenodd" clip-rule="evenodd" d="M11.3823 11.6385C11.1921 11.7556 10.9855 11.8527 10.7585 11.9027C10.1192 12.0455 9.42081 11.8327 8.81068 11.6899C4.72061 10.7309 1.98104 9.22912 1.19524 6.98827C0.567976 5.19874 1.17125 3.40635 2.49776 2.29235C3.72658 1.26048 5.54839 0.842016 7.41733 1.51256C8.63416 0.15291 10.4637 -0.244129 12.1467 0.137914C13.9633 0.54995 15.5606 1.85104 16.0911 3.662C16.195 4.01714 16.2473 4.37871 16.2479 4.74671C16.4673 4.8405 16.6729 4.95475 16.8649 5.08948C17.8563 5.78858 18.3859 6.97613 18.0903 8.21081C17.7132 9.78611 15.9608 10.8923 13.4543 11.682C13.025 11.8177 12.5554 11.9855 12.0867 11.917C11.8262 11.8784 11.5931 11.767 11.3823 11.6385ZM2.84053 6.58766C2.38207 5.27872 2.8431 4.03047 3.71458 3.29852C4.55094 2.59584 5.7909 2.33448 7.16197 3.00288C7.64099 3.23639 8.25883 3.09786 8.53304 2.69725C9.31969 1.54683 10.5502 1.25619 11.6959 1.51613C12.8905 1.78748 14.0387 2.67582 14.4261 4.00048C14.4735 4.15948 14.5049 4.32254 14.5203 4.48964C14.2064 4.5231 13.9002 4.59555 13.612 4.70458C12.6917 3.95692 11.4731 3.80981 10.3986 4.13973C9.18002 4.5132 8.19456 5.47866 7.9649 6.72334C7.73097 7.99801 8.45335 9.24054 9.79785 10.4352C9.62818 10.3995 9.45252 10.3567 9.27513 10.3153C5.30674 9.38479 3.36239 8.07656 2.84053 6.58766ZM9.65989 6.93971C9.797 6.18991 10.3788 5.6679 10.9907 5.47938C11.5563 5.30657 12.1844 5.39726 12.6617 5.97211C12.7328 6.05776 12.8237 6.13081 12.9289 6.18703C13.0342 6.24326 13.1518 6.28154 13.2749 6.29967C13.398 6.31779 13.5242 6.31541 13.6462 6.29265C13.7682 6.26989 13.8835 6.2272 13.9856 6.16706C14.6712 5.76216 15.2984 5.85642 15.7577 6.17991C16.2565 6.53125 16.5872 7.18822 16.409 7.9316C16.2162 8.73853 15.2367 9.59402 12.8485 10.346C12.6968 10.3938 12.546 10.4452 12.39 10.4831C12.2589 10.4024 12.1381 10.3117 12.0147 10.2239C10.0798 8.83636 9.50993 7.75307 9.65989 6.939V6.93971Z" fill="#909090"/>
</svg>
