<svg width="21" height="21" viewBox="0 0 21 21" fill="none" xmlns="http://www.w3.org/2000/svg">
<path d="M16.333 16.5C16.8634 16.5 17.3721 16.7107 17.7472 17.0858C18.1223 17.4609 18.333 17.9696 18.333 18.5C18.333 19.0304 18.1223 19.5391 17.7472 19.9142C17.3721 20.2893 16.8634 20.5 16.333 20.5C15.8026 20.5 15.2939 20.2893 14.9188 19.9142C14.5437 19.5391 14.333 19.0304 14.333 18.5C14.333 17.39 15.223 16.5 16.333 16.5ZM0.333008 0.5H3.60301L4.54301 2.5H19.333C19.5982 2.5 19.8526 2.60536 20.0401 2.79289C20.2277 2.98043 20.333 3.23478 20.333 3.5C20.333 3.67 20.283 3.84 20.213 4L16.633 10.47C16.293 11.08 15.633 11.5 14.883 11.5H7.43301L6.53301 13.13L6.50301 13.25C6.50301 13.3163 6.52935 13.3799 6.57623 13.4268C6.62312 13.4737 6.6867 13.5 6.75301 13.5H18.333V15.5H6.33301C5.80257 15.5 5.29387 15.2893 4.91879 14.9142C4.54372 14.5391 4.33301 14.0304 4.33301 13.5C4.33301 13.15 4.42301 12.82 4.57301 12.54L5.93301 10.09L2.33301 2.5H0.333008V0.5ZM6.33301 16.5C6.86344 16.5 7.37215 16.7107 7.74722 17.0858C8.12229 17.4609 8.33301 17.9696 8.33301 18.5C8.33301 19.0304 8.12229 19.5391 7.74722 19.9142C7.37215 20.2893 6.86344 20.5 6.33301 20.5C5.80257 20.5 5.29387 20.2893 4.91879 19.9142C4.54372 19.5391 4.33301 19.0304 4.33301 18.5C4.33301 17.39 5.22301 16.5 6.33301 16.5ZM15.333 9.5L18.113 4.5H5.47301L7.83301 9.5H15.333Z" fill="#909090"/>
</svg>
