<svg width="20" height="20" viewBox="0 0 20 20" fill="none" xmlns="http://www.w3.org/2000/svg">
<path fill-rule="evenodd" clip-rule="evenodd" d="M4.67285 15.2859C4.67285 14.6149 5.21677 14.071 5.88773 14.071C6.55869 14.071 7.10262 14.6149 7.10262 15.2859C7.10262 15.9568 6.55869 16.5007 5.88773 16.5007C5.21677 16.5007 4.67285 15.9568 4.67285 15.2859Z" fill="#6B4B34"/>
<path fill-rule="evenodd" clip-rule="evenodd" d="M11.3555 15.2859C11.3555 14.6149 11.8994 14.071 12.5704 14.071C13.2413 14.071 13.7852 14.6149 13.7852 15.2859C13.7852 15.9568 13.2413 16.5007 12.5704 16.5007C11.8994 16.5007 11.3555 15.9568 11.3555 15.2859Z" fill="#6B4B34"/>
<path fill-rule="evenodd" clip-rule="evenodd" d="M1.66602 3.7751C1.66602 3.43962 1.93798 3.16766 2.27346 3.16766H3.48834C3.7748 3.16766 4.02232 3.36779 4.08231 3.64789L4.62994 6.20487H14.4466C14.6308 6.20487 14.8051 6.28848 14.9204 6.43218C15.0357 6.57589 15.0795 6.76415 15.0396 6.944L14.0375 11.4562C14.0375 11.4564 14.0376 11.456 14.0375 11.4562C13.9483 11.861 13.7236 12.2238 13.4007 12.4838C13.0776 12.7439 12.6755 12.8861 12.2608 12.8867H6.32511C5.90392 12.8944 5.493 12.7559 5.16233 12.4946C4.82972 12.2319 4.59911 11.8614 4.5102 11.4469L3.55074 6.96702C3.54609 6.9493 3.54221 6.93127 3.53916 6.91297L2.99722 4.38255H2.27346C1.93798 4.38255 1.66602 4.11059 1.66602 3.7751ZM4.89013 7.41975L5.69806 11.1921C5.69805 11.192 5.69808 11.1922 5.69806 11.1921C5.72773 11.3302 5.80462 11.4538 5.91544 11.5413C6.02631 11.6289 6.16424 11.6751 6.3055 11.672L6.31902 11.6718L12.2588 11.6718C12.2587 11.6718 12.2589 11.6718 12.2588 11.6718C12.3969 11.6715 12.5312 11.6242 12.6388 11.5375C12.7465 11.4508 12.8213 11.33 12.8511 11.195L13.6894 7.41975H4.89013Z" fill="#6B4B34"/>
</svg>
