<svg width="13" height="11" viewBox="0 0 13 11" fill="none" xmlns="http://www.w3.org/2000/svg">
<path d="M0 0.397949C0.759417 1.87713 0.782708 3.2586 1.61254 6.0745C2.61733 8.98973 6.32667 9.18623 6.60129 9.19168C6.85046 9.58795 7.42083 10.1218 8.72788 10.3979L8.87304 9.70366C7.74529 9.46569 7.33254 9.02739 7.19063 8.78668L7.18792 8.78996C7.23504 8.52578 8.01287 5.85508 6.47129 3.68543C3.89025 0.803495 0 0.397949 0 0.397949ZM13 0.85644C10.8886 1.18994 10.6746 0.354283 6.78546 2.54467C7.41925 3.2908 7.87656 4.17227 8.12288 5.12253C8.36919 6.07279 8.39807 7.06702 8.20733 8.03018C10.224 7.21908 11.0056 5.85999 11.2439 4.50089C11.2439 4.50089 11.9318 1.9268 13 0.85644ZM6.78546 2.54467L6.78438 2.54357V2.54576L6.78546 2.54467ZM1.43163 1.69701C1.43163 1.69701 4.36854 2.47535 6.05908 7.99743C4.46388 7.51219 3.78246 5.92549 3.55117 5.17662H3.55442C3.13223 3.86268 2.40473 2.66959 1.43163 1.69701Z" fill="white"/>
</svg>
