<svg width="12" height="14" viewBox="0 0 12 14" fill="none" xmlns="http://www.w3.org/2000/svg">
<path fill-rule="evenodd" clip-rule="evenodd" d="M5.50832 13.756C5.50832 13.756 0.666992 9.67871 0.666992 5.66671C0.666992 4.25222 1.2289 2.89567 2.22909 1.89547C3.22928 0.895277 4.58584 0.333374 6.00032 0.333374C7.41481 0.333374 8.77137 0.895277 9.77156 1.89547C10.7718 2.89567 11.3337 4.25222 11.3337 5.66671C11.3337 9.67871 6.49232 13.756 6.49232 13.756C6.22299 14.004 5.77966 14.0014 5.50832 13.756ZM6.00032 8.00004C6.30674 8.00004 6.61016 7.93969 6.89325 7.82243C7.17634 7.70517 7.43357 7.53329 7.65024 7.31662C7.86691 7.09995 8.03878 6.84273 8.15604 6.55964C8.2733 6.27654 8.33366 5.97313 8.33366 5.66671C8.33366 5.36029 8.2733 5.05687 8.15604 4.77378C8.03878 4.49069 7.86691 4.23346 7.65024 4.01679C7.43357 3.80012 7.17634 3.62825 6.89325 3.51099C6.61016 3.39373 6.30674 3.33337 6.00032 3.33337C5.38149 3.33337 4.78799 3.57921 4.35041 4.01679C3.91282 4.45438 3.66699 5.04787 3.66699 5.66671C3.66699 6.28555 3.91282 6.87904 4.35041 7.31662C4.78799 7.75421 5.38149 8.00004 6.00032 8.00004Z" fill="#909090"/>
</svg>
