<svg width="16" height="20" viewBox="0 0 16 20" fill="none" xmlns="http://www.w3.org/2000/svg">
<path d="M0.844272 19.0516L2.32558 8.53497L9.91507 13.5266L0.844272 19.0516ZM8.53323 10.2084L7.8293 9.74624L13.0524 1.80469L15.3879 3.34073L14.9609 4.03644L13.308 2.94855L8.53323 10.2084ZM4.82426 7.76903L4.12126 7.30667L5.53046 5.16403L3.3753 3.74578L3.83747 3.04185L6.69656 4.92227L4.82426 7.76903ZM6.67874 8.98872L5.97574 8.52636L9.27569 3.50893L6.50069 1.68382L6.96305 0.980815L10.4411 3.26829L6.67874 8.98872ZM10.3868 11.4283L9.68378 10.9659L11.7301 7.85456L14.8415 9.9009L14.3791 10.6039L11.9708 9.01993L10.3868 11.4283Z" fill="#909090"/>
</svg>
