<svg width="20" height="20" viewBox="0 0 20 20" fill="none" xmlns="http://www.w3.org/2000/svg">
<path d="M7.49967 4.16676C7.27866 4.16676 7.0667 4.25455 6.91042 4.41083C6.75414 4.56711 6.66634 4.77908 6.66634 5.00009C6.66634 5.2211 6.75414 5.43306 6.91042 5.58934C7.0667 5.74562 7.27866 5.83342 7.49967 5.83342C7.72069 5.83342 7.93265 5.74562 8.08893 5.58934C8.24521 5.43306 8.33301 5.2211 8.33301 5.00009C8.33301 4.77908 8.24521 4.56711 8.08893 4.41083C7.93265 4.25455 7.72069 4.16676 7.49967 4.16676ZM5.14134 4.16676C5.31351 3.67881 5.63279 3.25628 6.05517 2.95741C6.47756 2.65854 6.98225 2.49805 7.49967 2.49805C8.0171 2.49805 8.52179 2.65854 8.94417 2.95741C9.36656 3.25628 9.68584 3.67881 9.85801 4.16676H15.833C16.054 4.16676 16.266 4.25455 16.4223 4.41083C16.5785 4.56711 16.6663 4.77908 16.6663 5.00009C16.6663 5.2211 16.5785 5.43306 16.4223 5.58934C16.266 5.74562 16.054 5.83342 15.833 5.83342H9.85801C9.68584 6.32137 9.36656 6.74389 8.94417 7.04277C8.52179 7.34164 8.0171 7.50213 7.49967 7.50213C6.98225 7.50213 6.47756 7.34164 6.05517 7.04277C5.63279 6.74389 5.31351 6.32137 5.14134 5.83342H4.16634C3.94533 5.83342 3.73337 5.74562 3.57709 5.58934C3.42081 5.43306 3.33301 5.2211 3.33301 5.00009C3.33301 4.77908 3.42081 4.56711 3.57709 4.41083C3.73337 4.25455 3.94533 4.16676 4.16634 4.16676H5.14134ZM12.4997 9.16676C12.2787 9.16676 12.0667 9.25455 11.9104 9.41083C11.7541 9.56711 11.6663 9.77908 11.6663 10.0001C11.6663 10.2211 11.7541 10.4331 11.9104 10.5893C12.0667 10.7456 12.2787 10.8334 12.4997 10.8334C12.7207 10.8334 12.9326 10.7456 13.0889 10.5893C13.2452 10.4331 13.333 10.2211 13.333 10.0001C13.333 9.77908 13.2452 9.56711 13.0889 9.41083C12.9326 9.25455 12.7207 9.16676 12.4997 9.16676ZM10.1413 9.16676C10.3135 8.67881 10.6328 8.25628 11.0552 7.95741C11.4776 7.65854 11.9822 7.49805 12.4997 7.49805C13.0171 7.49805 13.5218 7.65854 13.9442 7.95741C14.3666 8.25628 14.6858 8.67881 14.858 9.16676H15.833C16.054 9.16676 16.266 9.25455 16.4223 9.41083C16.5785 9.56711 16.6663 9.77908 16.6663 10.0001C16.6663 10.2211 16.5785 10.4331 16.4223 10.5893C16.266 10.7456 16.054 10.8334 15.833 10.8334H14.858C14.6858 11.3214 14.3666 11.7439 13.9442 12.0428C13.5218 12.3416 13.0171 12.5021 12.4997 12.5021C11.9822 12.5021 11.4776 12.3416 11.0552 12.0428C10.6328 11.7439 10.3135 11.3214 10.1413 10.8334H4.16634C3.94533 10.8334 3.73337 10.7456 3.57709 10.5893C3.42081 10.4331 3.33301 10.2211 3.33301 10.0001C3.33301 9.77908 3.42081 9.56711 3.57709 9.41083C3.73337 9.25455 3.94533 9.16676 4.16634 9.16676H10.1413ZM7.49967 14.1668C7.27866 14.1668 7.0667 14.2546 6.91042 14.4108C6.75414 14.5671 6.66634 14.7791 6.66634 15.0001C6.66634 15.2211 6.75414 15.4331 6.91042 15.5893C7.0667 15.7456 7.27866 15.8334 7.49967 15.8334C7.72069 15.8334 7.93265 15.7456 8.08893 15.5893C8.24521 15.4331 8.33301 15.2211 8.33301 15.0001C8.33301 14.7791 8.24521 14.5671 8.08893 14.4108C7.93265 14.2546 7.72069 14.1668 7.49967 14.1668ZM5.14134 14.1668C5.31351 13.6788 5.63279 13.2563 6.05517 12.9574C6.47756 12.6585 6.98225 12.498 7.49967 12.498C8.0171 12.498 8.52179 12.6585 8.94417 12.9574C9.36656 13.2563 9.68584 13.6788 9.85801 14.1668H15.833C16.054 14.1668 16.266 14.2546 16.4223 14.4108C16.5785 14.5671 16.6663 14.7791 16.6663 15.0001C16.6663 15.2211 16.5785 15.4331 16.4223 15.5893C16.266 15.7456 16.054 15.8334 15.833 15.8334H9.85801C9.68584 16.3214 9.36656 16.7439 8.94417 17.0428C8.52179 17.3416 8.0171 17.5021 7.49967 17.5021C6.98225 17.5021 6.47756 17.3416 6.05517 17.0428C5.63279 16.7439 5.31351 16.3214 5.14134 15.8334H4.16634C3.94533 15.8334 3.73337 15.7456 3.57709 15.5893C3.42081 15.4331 3.33301 15.2211 3.33301 15.0001C3.33301 14.7791 3.42081 14.5671 3.57709 14.4108C3.73337 14.2546 3.94533 14.1668 4.16634 14.1668H5.14134Z" fill="#909090"/>
</svg>
