<svg width="12" height="12" viewBox="0 0 12 12" fill="none" xmlns="http://www.w3.org/2000/svg">
<g clip-path="url(#clip0_29_68)">
<path d="M11.5081 5.32804C11.1764 4.97548 10.7844 4.72783 10.2815 4.76822C10.1887 4.77571 10.0611 4.82821 10.0059 4.73059C9.94515 4.62322 10.07 4.54608 10.1262 4.47526C10.6624 3.79959 10.7074 3.09379 10.2971 2.32799C9.97399 1.72473 9.39001 1.5288 8.82064 1.87564C8.65075 1.97908 8.49315 2.10507 8.32988 2.22071C8.28494 2.19303 8.2401 2.16535 8.19516 2.13767C8.2507 1.98183 8.2615 1.82048 8.24754 1.65607C8.29099 1.56879 8.27099 1.48604 8.23182 1.40458C8.22224 1.3506 8.21256 1.29671 8.20298 1.24273C8.23163 1.09113 8.17553 0.965529 8.09468 0.847517C7.80544 0.307991 7.34761 0.192049 6.81071 0.274106C6.61496 0.303362 6.51095 0.454373 6.41149 0.611394C6.39112 0.636415 6.37084 0.661435 6.35046 0.686456C6.30274 0.694041 6.25492 0.701529 6.20719 0.709114C5.87915 0.0864469 5.34643 -0.148296 4.78366 0.0935402C4.16219 0.360594 3.51643 1.12363 3.70194 1.88864C3.74186 2.05325 3.72288 2.15206 3.50713 2.08251C2.88063 1.88077 2.30093 2.03956 1.82785 2.48609C1.34472 2.94209 1.22228 3.5548 1.81854 4.04143C2.08723 4.26071 2.34819 4.49062 2.68005 4.77324C1.48315 4.75758 0.727894 5.41847 0.100838 6.30898C0.03162 6.40719 0.00547755 6.51771 0.000639734 6.63435C-0.0245728 7.24007 0.700821 7.76177 1.22591 7.5152C1.29764 7.48152 1.32248 7.49954 1.3222 7.57845C1.32192 7.67883 1.3904 7.68375 1.45813 7.67981C1.66494 7.66779 1.87167 7.654 2.0782 7.63824C2.19282 7.62947 2.33591 7.51983 2.41285 7.63893C2.4777 7.73931 2.33693 7.83722 2.28818 7.93613C1.97549 8.57032 1.80328 9.22953 1.98591 9.94411C2.13961 10.5458 2.57836 10.9033 3.06977 11.1275C3.4247 11.2894 3.78903 11.6412 4.27123 11.2525C4.42343 11.1297 4.64002 11.0389 4.78943 10.8677C4.97857 10.651 5.01299 10.3325 5.21218 10.1222C5.31778 10.1921 5.2827 10.2981 5.29898 10.3835C5.4123 10.9782 5.59362 11.5189 6.14644 11.8325C6.66557 12.127 7.15326 11.9998 7.60755 11.7088C7.98369 11.4678 8.03477 11.0411 8.02249 10.6094C8.01821 10.4581 8.02184 10.3066 8.02184 10.0594C8.15032 10.2295 8.21377 10.319 8.28252 10.4037C8.76965 11.0035 9.82607 11.1357 10.2709 10.1586C10.4881 9.68119 10.453 9.23229 10.2263 8.79758C10.0308 8.42276 9.94757 7.99582 9.71684 7.6409C9.63655 7.51737 9.66456 7.43866 9.80783 7.44743C10.3435 7.48023 10.7746 7.17752 11.2159 6.93765C11.875 6.57938 12.0017 5.8524 11.5081 5.32804ZM7.92108 3.37227C8.21768 2.87766 8.582 2.46629 9.09956 2.21421C9.42499 2.05571 9.66753 2.19806 9.86216 2.4199C10.2511 2.86338 10.2446 3.5549 9.91882 4.063C9.56752 4.6108 9.01554 4.84309 8.50069 5.13851C8.41538 5.18747 8.35295 5.20894 8.32457 5.05813C8.2587 4.70813 8.11078 4.39143 7.91829 4.09866C7.90973 4.00449 7.89112 3.91731 7.78795 3.88904C7.68477 3.67449 7.82767 3.52811 7.92108 3.37227ZM6.44657 2.34848C6.51272 2.294 6.4996 2.07541 6.46471 1.95051C6.36256 1.58406 6.44917 1.26834 6.63813 0.966317C6.76242 0.840818 6.8522 0.677198 7.00999 0.58864C7.11782 0.600362 7.22574 0.612083 7.33357 0.623707C7.36371 0.674833 7.40743 0.696802 7.46381 0.691876C7.46837 0.707933 7.47861 0.714828 7.49424 0.712562C7.5748 0.782108 7.65537 0.851656 7.73585 0.921202C7.74227 0.939426 7.75464 0.948094 7.77306 0.947011C7.77297 0.947306 7.7725 0.94898 7.7725 0.94898C7.86117 1.49619 7.91913 2.0437 7.72245 2.57958C7.63156 2.82713 7.52019 3.0663 7.42762 3.31326C7.38185 3.43521 7.32882 3.46201 7.20778 3.41463C6.96887 3.32104 6.7173 3.30755 6.46378 3.33582C6.30999 3.35306 6.23929 3.29218 6.26859 3.11595C6.31148 2.85836 6.1803 2.56785 6.44657 2.34848ZM6.3606 3.72936C7.3598 3.65026 7.6042 4.05345 7.9062 4.97469C7.9796 5.1985 7.96304 5.45541 7.98788 5.69715C7.89847 5.7931 7.99858 5.88362 7.99504 5.97711C7.92908 6.63858 7.52968 7.06561 7.06972 7.4491C7.00124 7.50614 6.91658 7.54495 6.85732 7.61046C6.41689 8.09709 5.89059 7.98203 5.36187 7.8585C5.33117 7.80344 5.288 7.7796 5.22772 7.79851C5.03476 7.72572 4.95689 7.47619 4.73882 7.44201C4.73882 7.44211 4.73873 7.44221 4.73863 7.44221C4.7377 7.44211 4.72849 7.43955 4.72849 7.43955C4.75305 7.33769 4.675 7.29415 4.62466 7.23485C4.59089 7.08138 4.50037 6.97105 4.38417 6.88012C4.0952 6.45595 4.1219 5.94893 4.07697 5.46812C4.05436 5.22638 4.21847 4.97962 4.3651 4.83087C4.92349 4.26435 5.55399 3.79319 6.3606 3.72936ZM5.46728 0.51141C5.81188 0.763787 5.99433 1.06433 5.9572 1.50663C5.91404 2.02074 5.9025 2.5384 5.89441 3.05488C5.89078 3.28528 5.85459 3.44152 5.60162 3.48989C5.4256 3.52348 5.21274 3.72808 5.10286 3.67075C4.94284 3.58711 4.85093 3.34252 4.74747 3.15575C4.58838 2.8685 4.3797 2.61671 4.25448 2.30307C4.16749 2.08517 4.11372 1.87111 4.1072 1.63913C4.02078 1.05763 5.00601 0.173529 5.46728 0.51141ZM2.02555 3.65833C1.76347 3.37483 1.76421 3.21919 2.01503 2.91884C2.43174 2.4199 3.20114 2.18555 3.81172 2.77531C4.14991 3.10196 4.38268 3.49984 4.66421 3.86471C4.74496 3.96942 4.67053 3.99661 4.61183 4.0498C4.46623 4.1818 4.32574 4.32001 4.18312 4.45575C4.09688 4.49092 4.06339 4.56549 4.05045 4.65523C3.94635 4.84111 3.77377 4.86308 3.63049 4.7698C3.08605 4.41537 2.48346 4.15353 2.02555 3.65833ZM1.3649 7.30115C1.06366 7.3439 0.708078 7.13733 0.471397 6.8621C0.34459 6.71463 0.442927 6.54973 0.536241 6.42009C1.04858 5.70788 1.69825 5.24894 2.5685 5.20146C2.81681 5.18796 3.05758 5.12866 3.31473 5.17417C3.64184 5.23209 3.81098 5.36892 3.70483 5.78502C3.9576 6.33518 3.54639 6.50865 3.17499 6.7693C2.61771 7.16048 1.98014 7.21387 1.3649 7.30115ZM7.60783 10.6254C7.56969 11.2615 7.45265 11.4185 6.91277 11.5432C6.53932 11.6295 6.12755 11.3957 5.91115 10.9922C5.64563 10.497 5.69727 9.93918 5.61651 9.40764C5.58888 9.22549 5.59279 9.03665 5.55232 8.85845C5.52022 8.7169 5.46691 8.56933 5.26875 8.5914C5.0837 8.61199 5.03672 8.72931 5.02499 8.89668C4.98304 9.49698 4.81259 10.0559 4.49786 10.5559C4.2088 11.0151 4.06925 11.0457 3.56453 10.8775C3.21639 10.7614 2.90277 10.5802 2.65242 10.307C2.15524 9.76463 2.29925 9.13408 2.49286 8.52008C2.73298 7.75871 3.31929 7.33257 3.92895 6.93923C3.94635 6.928 3.98812 6.95903 4.01854 6.97036C4.0471 7.0603 4.09483 7.13359 4.17763 7.17673C4.25671 7.33513 4.35123 7.48063 4.48893 7.58948C4.71007 7.71971 4.47488 8.02872 4.68895 8.16171C5.43202 8.54973 6.16867 8.54766 6.89788 8.12004C6.95724 8.08527 7.02729 8.04035 7.04878 8.14703C7.21662 8.97795 7.66095 9.73852 7.60783 10.6254ZM9.67628 8.50777C9.75024 8.7368 9.84858 8.95745 9.94301 9.1785C10.0918 9.52683 9.96822 9.8328 9.8069 10.1249C9.68195 10.3511 9.49477 10.4798 9.24292 10.4131C8.8905 10.4684 8.67764 10.2557 8.5019 10.0005C8.04612 9.33848 7.72357 8.59761 7.3892 7.86333C7.33245 7.73872 7.4026 7.72788 7.4547 7.68148C7.54643 7.59972 7.67993 7.53973 7.72534 7.436C7.90508 7.02483 8.15311 7.17959 8.45631 7.2517C9.12588 7.41098 9.46956 7.86786 9.67628 8.50777ZM10.9712 6.59061C10.1695 7.14078 9.33019 7.11812 8.47008 6.76861C8.30978 6.7035 8.25191 6.60165 8.31229 6.42019C8.36774 6.25362 8.35155 6.07877 8.32206 5.90677C8.39323 5.85614 8.35816 5.76482 8.39267 5.7002C8.72109 5.62011 8.97563 5.35129 9.31707 5.30036C9.88365 5.21574 10.4499 5.03902 10.9841 5.44615C11.5013 5.84028 11.5055 6.22406 10.9712 6.59061Z" fill="#C9A96B"/>
<path d="M5.47908 7.2151C6.48683 7.26071 7.42528 6.56269 7.12189 5.28406C6.95545 4.55323 6.04389 4.25406 5.52327 4.7594C5.07605 4.85712 4.91007 5.23529 4.73303 5.61888C4.5064 6.10975 4.96813 7.19195 5.47908 7.2151ZM5.70543 5.02685C6.27964 4.8324 6.53902 4.90864 6.80473 5.34986C6.92372 6.35129 6.46757 6.67301 5.65566 6.82028C5.48931 6.85043 5.38037 6.78876 5.28696 6.62297C4.91342 5.96061 5.02442 5.51308 5.70543 5.02685Z" fill="#C9A96B"/>
</g>
<defs>
<clipPath id="clip0_29_68">
<rect width="12" height="12" fill="white"/>
</clipPath>
</defs>
</svg>
