<svg width="40" height="41" viewBox="0 0 40 41" fill="none" xmlns="http://www.w3.org/2000/svg">
<ellipse cx="19.5357" cy="20.9023" rx="19.5357" ry="20" fill="#E9DEC6"/>
<path d="M26.5853 29.072C24.7451 29.072 22.9234 28.6651 21.1203 27.8512C19.3172 27.0374 17.6792 25.8768 16.2065 24.3697C14.7343 22.8625 13.6007 21.1896 12.8057 19.3508C12.0108 17.5121 11.6133 15.6432 11.6133 13.7442V12.7947H16.8248L17.6418 17.3388L15.1244 19.9386C15.4483 20.5264 15.809 21.0841 16.2065 21.6116C16.6039 22.1391 17.0309 22.6289 17.4872 23.0811C17.9142 23.5181 18.3817 23.9365 18.8899 24.3362C19.3981 24.7359 19.9464 25.1088 20.5346 25.4548L23.0962 22.8324L27.5127 23.7593V29.072H26.5853Z" fill="#806F4F"/>
</svg>
