<svg width="10" height="11" viewBox="0 0 10 11" fill="none" xmlns="http://www.w3.org/2000/svg">
<path fill-rule="evenodd" clip-rule="evenodd" d="M4.59311 0.0701971C4.81154 -0.011529 5.05021 -0.0221834 5.27505 0.0397535L5.37025 0.0701971L9.2449 1.52319C9.44136 1.59686 9.61284 1.72484 9.73936 1.89222C9.86587 2.0596 9.94222 2.2595 9.95949 2.4686L9.96337 2.55993V5.52846C9.96335 6.4254 9.72117 7.30569 9.26239 8.07642C8.80362 8.84715 8.14527 9.47972 7.35684 9.90736L7.2096 9.9843L5.3531 10.9126C5.25087 10.9636 5.13922 10.993 5.02512 10.9989C4.91102 11.0048 4.79692 10.9871 4.68998 10.9469L4.61027 10.9126L2.75376 9.9843C1.9515 9.58316 1.27242 8.97285 0.788215 8.2178C0.304012 7.46276 0.0326469 6.59099 0.00276767 5.69452L0 5.52846V2.55993C3.21875e-06 2.35022 0.0595735 2.14482 0.171776 1.96765C0.283979 1.79048 0.444197 1.64882 0.633781 1.55917L0.718469 1.52319L4.59311 0.0701971ZM6.88192 3.63155L4.33683 6.17663L3.35821 5.19801C3.25435 5.09422 3.11351 5.03594 2.96667 5.03599C2.81984 5.03605 2.67904 5.09442 2.57525 5.19829C2.47146 5.30215 2.41319 5.44299 2.41324 5.58982C2.41329 5.73665 2.47167 5.87745 2.57553 5.98124L3.90619 7.3119C3.96274 7.36847 4.02987 7.41335 4.10376 7.44397C4.17765 7.47458 4.25685 7.49034 4.33683 7.49034C4.41681 7.49034 4.49601 7.47458 4.5699 7.44397C4.64379 7.41335 4.71093 7.36847 4.76747 7.3119L7.6646 4.41423C7.71746 4.36317 7.75963 4.30209 7.78864 4.23456C7.81765 4.16702 7.83292 4.09439 7.83356 4.02089C7.8342 3.9474 7.82019 3.87451 7.79236 3.80649C7.76453 3.73846 7.72343 3.67666 7.67146 3.62469C7.61949 3.57272 7.55769 3.53161 7.48966 3.50378C7.42163 3.47595 7.34875 3.46195 7.27525 3.46259C7.20175 3.46322 7.12912 3.47849 7.06159 3.5075C6.99406 3.53651 6.93298 3.57868 6.88192 3.63155Z" fill="white"/>
</svg>
