<svg width="18" height="19" viewBox="0 0 18 19" fill="none" xmlns="http://www.w3.org/2000/svg">
<path fill-rule="evenodd" clip-rule="evenodd" d="M9 0.5C13.9707 0.5 18 4.5293 18 9.49999C18.0031 11.5771 17.2848 13.5908 15.9678 15.197L15.9858 15.2168L15.867 15.3176C15.0229 16.3158 13.9711 17.1177 12.7851 17.6674C11.599 18.2171 10.3072 18.5012 9 18.5C6.345 18.5 3.96001 17.3507 2.31301 15.5237L2.13301 15.3167L2.01421 15.2177L2.03221 15.1961C0.715422 13.5901 -0.00288209 11.5768 8.69139e-06 9.49999C8.69139e-06 4.5293 4.0293 0.5 9 0.5ZM9 14C7.326 14 5.8131 14.5328 4.6863 15.2654C5.93063 16.1986 7.44459 16.7021 9 16.7C10.5554 16.7021 12.0694 16.1986 13.3137 15.2654C12.0261 14.4405 10.5292 14.0014 9 14ZM9 2.3C7.64507 2.29996 6.31763 2.68224 5.17025 3.4029C4.02288 4.12356 3.10213 5.15335 2.51385 6.37391C1.92557 7.59446 1.69363 8.95624 1.84469 10.3027C1.99575 11.6492 2.52369 12.9257 3.36781 13.9856C4.8267 12.9389 6.8175 12.2 9 12.2C11.1825 12.2 13.1733 12.9389 14.6322 13.9856C15.4763 12.9257 16.0042 11.6492 16.1553 10.3027C16.3064 8.95624 16.0744 7.59446 15.4861 6.37391C14.8979 5.15335 13.9771 4.12356 12.8297 3.4029C11.6824 2.68224 10.3549 2.29996 9 2.3ZM9 4.1C9.95478 4.1 10.8705 4.47928 11.5456 5.15441C12.2207 5.82954 12.6 6.74521 12.6 7.69999C12.6 8.65477 12.2207 9.57044 11.5456 10.2456C10.8705 10.9207 9.95478 11.3 9 11.3C8.04522 11.3 7.12955 10.9207 6.45442 10.2456C5.77929 9.57044 5.4 8.65477 5.4 7.69999C5.4 6.74521 5.77929 5.82954 6.45442 5.15441C7.12955 4.47928 8.04522 4.1 9 4.1ZM9 5.89999C8.52261 5.89999 8.06477 6.08964 7.72721 6.4272C7.38964 6.76477 7.2 7.2226 7.2 7.69999C7.2 8.17738 7.38964 8.63522 7.72721 8.97278C8.06477 9.31035 8.52261 9.49999 9 9.49999C9.47739 9.49999 9.93522 9.31035 10.2728 8.97278C10.6104 8.63522 10.8 8.17738 10.8 7.69999C10.8 7.2226 10.6104 6.76477 10.2728 6.4272C9.93522 6.08964 9.47739 5.89999 9 5.89999Z" fill="#909090"/>
</svg>
