<svg width="24" height="25" viewBox="0 0 24 25" fill="none" xmlns="http://www.w3.org/2000/svg">
<g clip-path="url(#clip0_0_627)">
<path fill-rule="evenodd" clip-rule="evenodd" d="M12 1.99988C16.9707 1.99988 21 6.02917 21 10.9999C21.0031 13.077 20.2848 15.0907 18.9678 16.6969L18.9858 16.7167L18.867 16.8175C18.0229 17.8157 16.9711 18.6176 15.7851 19.1673C14.599 19.7169 13.3072 20.0011 12 19.9999C9.345 19.9999 6.96001 18.8506 5.31301 17.0236L5.13301 16.8166L5.01421 16.7176L5.03221 16.696C3.71542 15.09 2.99712 13.0767 3.00001 10.9999C3.00001 6.02917 7.0293 1.99988 12 1.99988ZM12 15.4999C10.326 15.4999 8.8131 16.0327 7.6863 16.7653C8.93063 17.6985 10.4446 18.202 12 18.1999C13.5554 18.202 15.0694 17.6985 16.3137 16.7653C15.0261 15.9403 13.5292 15.5012 12 15.4999ZM12 3.79988C10.6451 3.79984 9.31763 4.18212 8.17025 4.90278C7.02288 5.62344 6.10213 6.65323 5.51385 7.87379C4.92557 9.09434 4.69363 10.4561 4.84469 11.8026C4.99575 13.1491 5.52369 14.4256 6.36781 15.4855C7.8267 14.4388 9.8175 13.6999 12 13.6999C14.1825 13.6999 16.1733 14.4388 17.6322 15.4855C18.4763 14.4256 19.0042 13.1491 19.1553 11.8026C19.3064 10.4561 19.0744 9.09434 18.4861 7.87379C17.8979 6.65323 16.9771 5.62344 15.8297 4.90278C14.6824 4.18212 13.3549 3.79984 12 3.79988ZM12 5.59987C12.9548 5.59987 13.8705 5.97916 14.5456 6.65429C15.2207 7.32942 15.6 8.24509 15.6 9.19987C15.6 10.1546 15.2207 11.0703 14.5456 11.7455C13.8705 12.4206 12.9548 12.7999 12 12.7999C11.0452 12.7999 10.1295 12.4206 9.45442 11.7455C8.77929 11.0703 8.4 10.1546 8.4 9.19987C8.4 8.24509 8.77929 7.32942 9.45442 6.65429C10.1295 5.97916 11.0452 5.59987 12 5.59987ZM12 7.39987C11.5226 7.39987 11.0648 7.58951 10.7272 7.92708C10.3896 8.26465 10.2 8.72248 10.2 9.19987C10.2 9.67726 10.3896 10.1351 10.7272 10.4727C11.0648 10.8102 11.5226 10.9999 12 10.9999C12.4774 10.9999 12.9352 10.8102 13.2728 10.4727C13.6104 10.1351 13.8 9.67726 13.8 9.19987C13.8 8.72248 13.6104 8.26465 13.2728 7.92708C12.9352 7.58951 12.4774 7.39987 12 7.39987Z" fill="#6B4B34"/>
</g>
<defs>
<clipPath id="clip0_0_627">
<rect width="24" height="24" fill="white" transform="translate(0 0.801147)"/>
</clipPath>
</defs>
</svg>
