<svg width="15" height="17" viewBox="0 0 15 17" fill="none" xmlns="http://www.w3.org/2000/svg">
<path d="M12.8151 7.65355C12.6004 7.37354 12.3391 7.13087 12.0964 6.8882C11.471 6.32818 10.7617 5.92684 10.1643 5.33882C8.77363 3.97611 8.46563 1.72672 9.35232 0C8.46563 0.214673 7.69094 0.70002 7.02825 1.23204C4.61085 3.17342 3.65882 6.59886 4.79752 9.53894C4.83485 9.63228 4.87219 9.72561 4.87219 9.84695C4.87219 10.0523 4.73219 10.239 4.54551 10.3136C4.33084 10.407 4.10683 10.351 3.9295 10.2016C3.87652 10.1572 3.83222 10.1035 3.79883 10.043C2.74413 8.70825 2.57612 6.79486 3.28548 5.26415C1.72677 6.53352 0.877408 8.68025 0.998745 10.7056C1.05475 11.1723 1.11075 11.639 1.26942 12.1057C1.40009 12.6657 1.6521 13.2257 1.9321 13.7204C2.94013 15.3351 4.68552 16.4925 6.56157 16.7258C8.55896 16.9778 10.6964 16.6138 12.2271 15.2324C13.9351 13.6831 14.5325 11.2003 13.6551 9.07226L13.5338 8.82959C13.3378 8.40024 12.8151 7.65355 12.8151 7.65355ZM9.86567 13.5337C9.60433 13.7577 9.17498 14.0004 8.83897 14.0937C7.79361 14.4671 6.74824 13.9444 6.13223 13.3284C7.24292 13.067 7.90561 12.2457 8.10162 11.415C8.26029 10.6683 7.96161 10.0523 7.84027 9.3336C7.72827 8.64291 7.74694 8.0549 7.99895 7.41088C8.17628 7.76555 8.36296 8.12023 8.58696 8.40024C9.30565 9.3336 10.435 9.74428 10.6777 11.0136C10.715 11.1443 10.7337 11.275 10.7337 11.415C10.7617 12.1803 10.4257 13.0204 9.86567 13.5337Z" fill="#909090"/>
</svg>
