<svg width="25" height="25" viewBox="0 0 25 25" fill="none" xmlns="http://www.w3.org/2000/svg">
<path d="M3.66674 8.7636V8.7501C3.66672 7.41669 4.06163 6.11314 4.80164 5.00392C5.54165 3.8947 6.59361 3.0295 7.8248 2.51748C9.05598 2.00546 10.4112 1.86956 11.7196 2.12693C13.0279 2.3843 14.2307 3.0234 15.1762 3.9636C15.9202 3.59642 16.7511 3.44204 17.5773 3.51751C18.4035 3.59299 19.1927 3.89538 19.8578 4.39129C20.5229 4.88719 21.0379 5.5573 21.3461 6.32758C21.6542 7.09786 21.7433 7.93832 21.6037 8.7561C21.809 8.77515 22.0081 8.8363 22.1887 8.93573C22.3692 9.03517 22.5274 9.17075 22.6532 9.33403C22.779 9.4973 22.8699 9.68475 22.92 9.88469C22.9702 10.0846 22.9786 10.2928 22.9447 10.4961C22.2667 14.5746 20.5897 17.1561 17.9167 18.2421V19.2501C17.9167 19.8468 17.6797 20.4191 17.2577 20.8411C16.8358 21.263 16.2635 21.5001 15.6667 21.5001H9.66674C9.07 21.5001 8.4977 21.263 8.07575 20.8411C7.65379 20.4191 7.41674 19.8468 7.41674 19.2501V18.2421C4.74374 17.1561 3.06674 14.5746 2.38874 10.4961C2.35602 10.2982 2.36333 10.0957 2.41026 9.90062C2.45718 9.70557 2.54275 9.52191 2.66191 9.36051C2.78107 9.19911 2.9314 9.06326 3.10399 8.96099C3.27659 8.85871 3.46794 8.79211 3.66674 8.7651V8.7636ZM5.16674 8.7501H6.66674C6.66674 7.75554 7.06183 6.80171 7.76509 6.09845C8.46835 5.39519 9.42218 5.0001 10.4167 5.0001C11.4113 5.0001 12.3651 5.39519 13.0684 6.09845C13.7717 6.80171 14.1667 7.75554 14.1667 8.7501H15.6667C15.6667 7.35771 15.1136 6.02236 14.129 5.03779C13.1445 4.05322 11.8091 3.5001 10.4167 3.5001C9.02435 3.5001 7.68899 4.05322 6.70443 5.03779C5.71986 6.02236 5.16674 7.35771 5.16674 8.7501ZM8.16674 8.7501H12.6667C12.6667 8.15336 12.4297 7.58107 12.0077 7.15911C11.5858 6.73715 11.0135 6.5001 10.4167 6.5001C9.82 6.5001 9.2477 6.73715 8.82575 7.15911C8.40379 7.58107 8.16674 8.15336 8.16674 8.7501ZM18.4657 8.7501H20.0722C20.1855 8.30681 20.196 7.84352 20.1031 7.39553C20.0102 6.94754 19.8162 6.52667 19.536 6.165C19.2558 5.80333 18.8967 5.51039 18.4861 5.30852C18.0755 5.10665 17.6243 5.00116 17.1667 5.0001C16.8067 5.0001 16.4647 5.0631 16.1467 5.1786C16.4122 5.6046 16.6312 6.0636 16.7992 6.5451C17.0849 6.47424 17.3852 6.48883 17.6626 6.58706C17.9401 6.68529 18.1826 6.86284 18.3601 7.09767C18.5376 7.3325 18.6422 7.61427 18.661 7.90803C18.6798 8.20178 18.6119 8.49459 18.4657 8.7501ZM16.4167 18.5001H8.91674V19.2501C8.91674 19.449 8.99576 19.6398 9.13641 19.7804C9.27706 19.9211 9.46783 20.0001 9.66674 20.0001H15.6667C15.8657 20.0001 16.0564 19.9211 16.1971 19.7804C16.3377 19.6398 16.4167 19.449 16.4167 19.2501V18.5001ZM8.38874 17.0001H16.9447C19.3237 16.2351 20.8297 14.0721 21.4657 10.2501H3.86774C4.50374 14.0721 6.00974 16.2351 8.38874 17.0001Z" fill="#909090"/>
</svg>
