<svg width="16" height="16" viewBox="0 0 16 16" fill="none" xmlns="http://www.w3.org/2000/svg">
<path d="M10.8004 0.000488297C11.2131 0.00044476 11.6207 0.0916236 11.994 0.2675C12.3674 0.443376 12.6972 0.6996 12.9599 1.01784C13.2227 1.33607 13.4118 1.70845 13.5138 2.10833C13.6158 2.5082 13.6282 2.92568 13.55 3.33089L13.538 3.38369C14.234 3.61585 14.8425 4.05504 15.2821 4.64248C15.7216 5.22992 15.9713 5.9376 15.9976 6.67082C16.024 7.40403 15.8258 8.12781 15.4296 8.7453C15.0333 9.36279 14.458 9.84454 13.7804 10.1261L12.9116 15.3317C12.8806 15.5185 12.7843 15.6882 12.6398 15.8107C12.4954 15.9331 12.3122 16.0004 12.1228 16.0005H3.87804C3.68867 16.0004 3.50548 15.9331 3.36104 15.8107C3.2166 15.6882 3.12029 15.5185 3.08924 15.3317L2.26604 10.3957C1.71238 10.3643 1.18668 10.1421 0.778296 9.76694C0.369916 9.39178 0.104056 8.88676 0.0259078 8.33775C-0.0522401 7.78873 0.0621464 7.2296 0.349624 6.75538C0.637102 6.28116 1.07993 5.92113 1.60284 5.73649L1.60044 5.60049C1.60028 4.79045 1.80512 3.99355 2.19589 3.284C2.58665 2.57445 3.15063 1.97534 3.83529 1.54245C4.51996 1.10956 5.30304 0.856989 6.11161 0.808247C6.92017 0.759505 7.72793 0.916183 8.45964 1.26369C8.71448 0.875557 9.06184 0.556894 9.47046 0.336387C9.87908 0.115879 10.3361 0.000449372 10.8004 0.000488297ZM5.60044 10.4005H3.88844L4.55563 14.4005H5.60044V10.4005ZM8.80044 10.4005H7.20044V14.4005H8.80044V10.4005ZM12.1116 10.4005H10.4004V14.4005H11.4444L12.1116 10.4005ZM6.40044 2.40049C4.68684 2.40049 3.28764 3.74769 3.20444 5.41409L3.20044 5.57169L3.20284 5.70769C3.20849 6.02183 3.12153 6.33068 2.9528 6.59572C2.78408 6.86076 2.54105 7.07026 2.25404 7.19808L2.13404 7.24528C1.9564 7.30854 1.80678 7.43244 1.71153 7.59518C1.61628 7.75791 1.58152 7.94904 1.61335 8.13489C1.64519 8.32075 1.74159 8.4894 1.88557 8.61116C2.02955 8.73292 2.21188 8.79996 2.40044 8.80048H12.4004C12.6961 8.80048 12.9882 8.73491 13.2555 8.60849C13.5228 8.48207 13.7587 8.29795 13.9463 8.06938C14.134 7.84082 14.2685 7.5735 14.3404 7.28666C14.4123 6.99983 14.4197 6.70063 14.3621 6.41061C14.3044 6.12058 14.1832 5.84694 14.0071 5.6094C13.831 5.37186 13.6044 5.17632 13.3436 5.03686C13.0829 4.89741 12.7944 4.81751 12.4991 4.80292C12.2038 4.78833 11.9089 4.83941 11.6356 4.95249L11.4956 5.01729C11.1265 5.2075 10.6978 5.24675 10.3003 5.12672C9.90275 5.00669 9.56744 4.7368 9.36524 4.37409L9.30923 4.26449C9.05357 3.70803 8.6436 3.23662 8.128 2.90621C7.6124 2.57581 7.01282 2.40029 6.40044 2.40049ZM10.8004 1.60049C10.5931 1.60044 10.3892 1.65415 10.2088 1.75636C10.0283 1.85857 9.87743 2.0058 9.77083 2.18369C10.184 2.59032 10.5201 3.06844 10.7628 3.59489C11.1252 3.40957 11.5163 3.28703 11.9196 3.23249C11.9898 3.05072 12.0146 2.8546 11.992 2.66109C11.9693 2.46758 11.8999 2.28248 11.7897 2.12181C11.6795 1.96113 11.5319 1.8297 11.3595 1.73887C11.1872 1.64804 10.9953 1.60054 10.8004 1.60049Z" fill="#909090"/>
</svg>
