<svg width="80" height="80" viewBox="0 0 80 80" fill="none" xmlns="http://www.w3.org/2000/svg">
<g clip-path="url(#clip0_112_273)">
<circle opacity="0.1" cx="40.0524" cy="40.0526" r="34.1809" fill="#589C39"/>
<path opacity="0.1" fill-rule="evenodd" clip-rule="evenodd" d="M40 79.3709C61.744 79.3709 79.3709 61.744 79.3709 40C79.3709 18.2561 61.744 0.629096 40 0.629096C18.2561 0.629096 0.629096 18.2561 0.629096 40C0.629096 61.744 18.2561 79.3709 40 79.3709ZM40 80C62.0914 80 80 62.0914 80 40C80 17.9086 62.0914 0 40 0C17.9086 0 0 17.9086 0 40C0 62.0914 17.9086 80 40 80Z" fill="#589C39"/>
<circle cx="40.0525" cy="40.0524" r="24.7444" fill="#589C39"/>
<path d="M51.3117 27.4705L35.1002 43.6819L28.682 37.2637L24.2202 41.7256L35.1002 52.6056L55.7737 31.9322L51.3117 27.4705Z" fill="white"/>
</g>
<defs>
<clipPath id="clip0_112_273">
<rect width="80" height="80" fill="white"/>
</clipPath>
</defs>
</svg>
